<svg xmlns="http://www.w3.org/2000/svg" viewBox="0 0 315 316" enable-background="new 0 0 315 316"><g fill="#fff"><path d="M264.8 131.4l-54.8-41.1v24.7h-89v35h89v22.5zM49.2 183.5l54.8 41.1v-22.6h89v-35h-89v-24.6zM282.2 61.5c-46.7-60.6-129.7-79-197.3-43.6l7.8 15c60.4-31.5 134.5-15.2 176.1 39 47.4 61.5 36 150.2-25.3 197.8-61.4 47.5-149.9 36.1-197.3-25.4-19-24.6-29.1-54-29.3-85-.2-26.7 7.3-53.3 21.3-75.9l15 14 13.1-57.6-56.3 17.3 15.6 14.5c-16.8 25.9-25.8 56.7-25.6 87.8.3 34.7 11.6 67.7 32.9 95.2 25.7 33.4 62.9 54.7 104.6 60.1 6.8.9 13.6 1.3 20.4 1.3 34.6 0 68.1-11.4 96-33 68.7-53.2 81.4-152.6 28.3-221.5"/></g></svg>