<svg xmlns="http://www.w3.org/2000/svg" viewBox="0 0 290 330.5" enable-background="new 0 0 290 330.5"><g fill="#fff"><path d="M152.6 87.5c-5.4-.5-10.3 3.5-10.7 9l-8.1 91.7c-.5 5.4 3.6 10.2 9 10.7s10.3-3.5 10.7-9l8.1-91.7c.5-5.4-3.6-10.2-9-10.7"/><path d="M142.8 310.8c-67.4 0-122.2-54.6-122.2-121.7s54.8-121.7 122.2-121.7 122.2 54.6 122.2 121.7-54.8 121.7-122.2 121.7m147-230.9s-4.7-14-14-23.3-23.4-14-23.4-14l-29.8 29.6c-15.8-10.8-34.6-18.4-53.6-22.1v-42s-13.3-6.6-26.5-6.6l-26.5 6.7v42c-66 12.3-115.4 69.9-115.4 138.9 0 78 63.8 141.4 142.1 141.4s142.1-63.5 142.1-141.4c0-29.5-9.1-56.9-24.7-79.6l29.7-29.6z"/></g></svg>