<svg xmlns="http://www.w3.org/2000/svg" viewBox="0 0 255 245" enable-background="new 0 0 255 245"><path fill="#fff" d="M224.5 47.2c-5.8 0-10.5-4.7-10.5-10.5s4.7-10.5 10.5-10.5 10.5 4.7 10.5 10.5-4.7 10.5-10.5 10.5m-52.5.8h-146v-23h146v23zm71-48h-231.1c-6.4 0-11.9 4.9-11.9 11.3v50.7c0 6.5 5.5 12 11.9 12h231.5c6.5 0 11.6-5.5 11.6-12v-50.7c0-6.4-5.1-11.3-11.6-11.3m-18.9 218.8c-5.8 0-10.5-4.7-10.5-10.5s4.7-10.5 10.5-10.5 10.5 4.7 10.5 10.5-4.7 10.5-10.5 10.5m-52.5 1.2h-146v-23h146v23zm71-49h-231.1c-6.4 0-11.9 5.5-11.9 11.9v50.7c0 6.4 5.5 11.4 11.9 11.4h231.5c6.5 0 11.6-5 11.6-11.4v-50.7c0-6.5-5.1-11.9-11.6-11.9m-18.9-37.1c-5.8 0-10.5-4.7-10.5-10.5s4.7-10.5 10.5-10.5 10.5 4.7 10.5 10.5-4.7 10.5-10.5 10.5m-52.5 1.1h-146v-23h146v23zm71-49h-231.1c-6.4 0-11.9 5.6-11.9 12v50.7c0 6.5 5.5 11.3 11.9 11.3h231.5c6.5 0 11.6-4.9 11.6-11.3v-50.7c0-6.5-5.1-12-11.6-12"/></svg>