<svg xmlns="http://www.w3.org/2000/svg" viewBox="0 0 330 280" enable-background="new 0 0 330 280"><g fill="#fff"><path d="M219.4 158.9c-17.5-5.9-55-18.6-55-18.6s-4-52.5-5.2-67.6c-.7-8.3-7.9-12.6-14.3-12.6-6.3 0-13 4.1-13 12.6v118.9s-33.9-26.3-46.2-35.7c-4.1-3.1-7.2-4.4-10.1-4.4-10 0-13 14.8-13 14.8l65.3 82.8 5.3 30.8h78s18.7-84 20.8-93.2c3.9-17.1-3.7-24.8-12.6-27.8M306.4 112.7c-7.6 0-13.7-6.1-13.7-13.7s6.1-13.7 13.7-13.7 13.7 6.1 13.7 13.7c0 7.5-6.2 13.7-13.7 13.7m.6-112.7h-282.7c-12.7 0-24.3 11-24.3 23.7v152.7c0 12.7 11.6 21.6 24.3 21.6h50.6l-17.1-21h-33.5c-.7 0-2.3.1-2.3-.6v-152.7c0-.7 1.7-1.7 2.3-1.7h254.7v155h-35c.1 3-.3 7.3-1.3 11.5-.3 1.5-1.1 5.5-2.2 9.5h67.8c12.7 0 21.7-8.9 21.7-21.6v-152.7c0-12.7-10-23.2-22.7-23.2"/></g></svg>