<svg xmlns="http://www.w3.org/2000/svg" viewBox="0 0 255 416" enable-background="new 0 0 255 416"><g fill="#fff"><path d="M235.7 252.1c-23.5-8-73.8-25-73.8-25s-5.4-70.6-7-90.9c-.9-11.2-9.7-17-18.3-17-8.4 0-16.5 5.6-16.5 17v159.8s-46.4-35.3-62.9-47.9c-5.5-4.2-10.2-5.9-14-5.9-13.4 0-17.7 19.8-17.7 19.8l87.5 112 7 42h104.8s25.2-113.5 27.9-126c5.1-23-5.2-33.9-17-37.9"/><path d="M9.7 265.7l1.4-6.7c.3-1.2 1.6-7.4 5.2-14 3.8-7 8.7-11.2 12.7-13.8v-202.2h149v188.1c8 2.6 19 6.2 30 9.9v-200.1c0-14.8-12.7-26.9-27.4-26.9h-153.8c-14.8 0-26.8 12.1-26.8 26.9v286.4c0 14.8 12 26.7 26.8 26.7h41.2l-54.1-69-4.2-5.3z"/></g></svg>