<svg xmlns="http://www.w3.org/2000/svg" viewBox="0 0 360 292.8" enable-background="new 0 0 360 292.8"><g fill="#fff"><path d="M208.8 210.8h86.2c36 0 65-30.7 65-66.7v-.4c0-18.5-7.6-35.8-20.9-47.9-4.4-50.1-46.4-89.6-97.7-89.6-11.6 0-23 2.1-33.8 6-11-7.8-24.3-12.2-38.2-12.2-23.1 0-44.1 12.2-56.1 30.9-20.5 2-38.7 13.5-49.5 30.4-36 5.2-63.8 36.2-63.8 73.7 0 32.8 21.9 62.8 53.4 72 6.4 2 13.1 3.8 19.8 3.8h78v-25h-78c-4.3 0-8.4-1.9-12.2-3.2-20.2-5.8-34.9-25-34.9-47 0-26.7 21.6-48.7 48.3-48.7 2.1 0 4.2 0 6.3.3 4.5-17.5 20.3-30.5 39.3-30.5 3.4 0 6.8.4 9.9 1.2 4-18.2 20.2-31.9 39.6-31.9 13.8 0 26 6.9 33.3 17.5 11.2-7.2 24.6-11.4 38.9-11.4 39.9 0 72.2 32.3 72.2 72.2 0 1.6 0 3.1-.1 4.7 12.5 6.6 21.2 19.7 21.2 34.8v-.3.7.9c0 21.8-18.1 40.7-40 40.7h-86.3l.1 25zM121.6 136.2l18.2 17 26.2-27.7v167.3h25v-167.3l26.6 26.7 18.4-17-57.2-58.9z"/></g></svg>