<svg xmlns="http://www.w3.org/2000/svg" viewBox="0 0 421 200" enable-background="new 0 0 421 200"><g><path fill="#fff" d="M320.6 0c-55.3 0-100.4 44.9-100.4 100s45 100 100.4 100c55.4 0 100.4-44.9 100.4-100s-45-100-100.4-100zm0 183.1c-46 0-83.4-37.3-83.4-83.1s37.4-83.1 83.4-83.1c46 0 83.4 37.3 83.4 83.1.1 45.8-37.4 83.1-83.4 83.1zM320.6 107.7c24 0 45.8 13.2 56.9 34.6l-18.3 9.4c-7.5-14.5-22.2-23.4-38.5-23.4s-31 9-38.5 23.4l-18.4-9.4c11-21.3 32.8-34.6 56.8-34.6M294.5 89.4c-9.1 0-16.4-7.3-16.4-16.3s7.3-16.3 16.4-16.3c9.1 0 16.4 7.3 16.4 16.3s-7.4 16.3-16.4 16.3M346.8 89.4c-9.1 0-16.4-7.3-16.4-16.3s7.3-16.3 16.4-16.3c9.1 0 16.4 7.3 16.4 16.3s-7.3 16.3-16.4 16.3"/><path fill="#fff" d="M100.4 0c-55.4 0-100.4 44.9-100.4 100s45 100 100.4 100c55.3 0 100.4-44.9 100.4-100-.1-55.1-45.1-100-100.4-100zm0 183.1c-46 0-83.4-37.3-83.4-83.1s37.4-83.1 83.4-83.1c46 0 83.4 37.3 83.4 83.1s-37.4 83.1-83.4 83.1zM100.4 136.7c16.3 0 31-9 38.5-23.4l18.4 9.4c-11 21.3-32.8 34.6-56.8 34.6s-45.8-13.2-56.9-34.6l18.3-9.4c7.4 14.5 22.2 23.4 38.5 23.4M74.2 89.4c-9.1 0-16.4-7.3-16.4-16.3s7.3-16.3 16.4-16.3c9.1 0 16.4 7.3 16.4 16.3s-7.3 16.3-16.4 16.3M126.5 89.4c-9.1 0-16.4-7.3-16.4-16.3s7.3-16.3 16.4-16.3c9.1 0 16.4 7.3 16.4 16.3s-7.3 16.3-16.4 16.3"/></g></svg>