<svg xmlns="http://www.w3.org/2000/svg" viewBox="0 0 304 286" enable-background="new 0 0 304 286"><g fill="#fff"><path d="M65.5 182.1c19 0 34.5-15.4 34.5-34.4s-15.4-34.4-34.5-34.4-34.5 15.4-34.5 34.4 15.5 34.4 34.5 34.4M203 147.7c0 19 15.4 34.4 34.5 34.4s34.5-15.4 34.5-34.4-15.4-34.4-34.5-34.4-34.5 15.4-34.5 34.4M151.6 18c36 0 69.8 14 95.3 39.4l12.7-12.7c-28.9-28.8-67.2-44.7-108-44.7s-79.2 15.9-108 44.7l12.7 12.7c25.5-25.5 59.3-39.4 95.3-39.4M218.9 85.2l12.7-12.7c-21.4-21.3-49.8-33.1-80-33.1-30.2 0-58.7 11.8-80 33.1l12.7 12.7c18-18 41.9-27.8 67.3-27.8s49.3 9.9 67.3 27.8"/><path d="M203.7 100.4c-28.7-28.7-75.5-28.7-104.2 0l12.7 12.7c21.7-21.7 57-21.7 78.8 0l12.7-12.7zM97.5 198.6c-8.7-1.8-18.9-3-30.4-3-42.8 0-67 15.1-67 15.1v70.7h75.1v-71.8l5.2-3.3c.4-.3 6.4-4 17.1-7.7M86.1 215.8v70.6h131v-70.6s-24.2-14.8-63.9-14.8c-42.9-.1-67.1 14.8-67.1 14.8M117.1 152.8c0 19 15.4 34.4 34.5 34.4 19 0 34.5-15.4 34.5-34.4s-15.4-34.4-34.5-34.4-34.5 15.4-34.5 34.4M239 195.6c-12.6 0-23.6 1.3-32.8 3.1 10.3 3.7 16 7.2 16.5 7.5l5.2 3.2v6.1l.1 65.8h75v-70.7c0 .1-24.2-15-64-15"/></g></svg>